<svg width="48" height="48" viewBox="0 0 48 48" fill="none" xmlns="http://www.w3.org/2000/svg">
<path d="M27.3414 27.1658C27.9025 27.1658 28.4407 27.3888 28.8375 27.7856C29.2344 28.1824 29.4573 28.7206 29.4573 29.2818V30.6943L29.4498 30.7958C29.1582 32.7961 27.362 33.7572 24.348 33.7572C21.3453 33.7572 19.5199 32.8074 19.1259 30.8306L19.1127 30.6924V29.2818C19.1127 28.7206 19.3356 28.1824 19.7325 27.7856C20.1293 27.3888 20.6675 27.1658 21.2286 27.1658H27.3414ZM27.3414 28.5765H21.2286C21.0416 28.5765 20.8622 28.6508 20.7299 28.783C20.5976 28.9153 20.5233 29.0947 20.5233 29.2818V30.6172C20.7866 31.7457 21.981 32.3466 24.348 32.3466C26.7141 32.3466 27.8558 31.7532 28.0467 30.6388V29.2818C28.0467 29.0947 27.9724 28.9153 27.8401 28.783C27.7078 28.6508 27.5284 28.5765 27.3414 28.5765ZM28.2761 21.5224L33.4541 21.5233C34.0152 21.5233 34.5534 21.7463 34.9503 22.1431C35.3471 22.5399 35.57 23.0781 35.57 23.6393V25.0518L35.5625 25.1533C35.2709 27.1536 33.4748 28.1147 30.4607 28.1147L30.1645 28.1119C29.8868 27.4425 29.3806 26.8933 28.736 26.5621C29.2203 26.6561 29.794 26.7041 30.4607 26.7041C32.8268 26.7041 33.9685 26.1107 34.1594 24.9963V23.6393C34.1594 23.4522 34.0851 23.2728 33.9528 23.1405C33.8205 23.0083 33.6411 22.934 33.4541 22.934H28.5169C28.5169 22.4393 28.4322 21.9634 28.2761 21.5224V21.5224ZM15.1159 21.5233L20.2939 21.5224C20.1611 21.8981 20.0822 22.2907 20.0597 22.6885L20.0531 22.934H15.1159C14.9289 22.934 14.7495 23.0083 14.6172 23.1405C14.4849 23.2728 14.4106 23.4522 14.4106 23.6393V24.9747C14.6739 26.1032 15.8683 26.7041 18.2353 26.7041C18.8202 26.7041 19.3299 26.6674 19.7701 26.5959C19.1545 26.9304 18.6722 27.4658 18.4036 28.1128L18.2344 28.1147C15.2325 28.1147 13.4072 27.1649 13.0132 25.1881L13 25.0499V23.6393C13 23.0781 13.2229 22.5399 13.6197 22.1431C14.0166 21.7463 14.5548 21.5233 15.1159 21.5233V21.5233ZM24.285 19.6425C25.1579 19.6425 25.9951 19.9893 26.6124 20.6065C27.2297 21.2238 27.5765 22.061 27.5765 22.934C27.5765 23.8069 27.2297 24.6441 26.6124 25.2614C25.9951 25.8786 25.1579 26.2254 24.285 26.2254C23.4121 26.2254 22.5749 25.8786 21.9576 25.2614C21.3403 24.6441 20.9935 23.8069 20.9935 22.934C20.9935 22.061 21.3403 21.2238 21.9576 20.6065C22.5749 19.9893 23.4121 19.6425 24.285 19.6425ZM24.285 21.0531C23.7862 21.0531 23.3078 21.2513 22.9551 21.604C22.6023 21.9567 22.4042 22.4351 22.4042 22.934C22.4042 23.4328 22.6023 23.9112 22.9551 24.2639C23.3078 24.6166 23.7862 24.8148 24.285 24.8148C24.7838 24.8148 25.2622 24.6166 25.6149 24.2639C25.9677 23.9112 26.1658 23.4328 26.1658 22.934C26.1658 22.4351 25.9677 21.9567 25.6149 21.604C25.2622 21.2513 24.7838 21.0531 24.285 21.0531ZM30.3977 14C31.2707 14 32.1079 14.3468 32.7251 14.964C33.3424 15.5813 33.6892 16.4185 33.6892 17.2915C33.6892 18.1644 33.3424 19.0016 32.7251 19.6189C32.1079 20.2361 31.2707 20.5829 30.3977 20.5829C29.5248 20.5829 28.6876 20.2361 28.0703 19.6189C27.453 19.0016 27.1062 18.1644 27.1062 17.2915C27.1062 16.4185 27.453 15.5813 28.0703 14.964C28.6876 14.3468 29.5248 14 30.3977 14V14ZM18.1723 14C19.0452 14 19.8824 14.3468 20.4997 14.964C21.117 15.5813 21.4637 16.4185 21.4637 17.2915C21.4637 18.1644 21.117 19.0016 20.4997 19.6189C19.8824 20.2361 19.0452 20.5829 18.1723 20.5829C17.2993 20.5829 16.4621 20.2361 15.8449 19.6189C15.2276 19.0016 14.8808 18.1644 14.8808 17.2915C14.8808 16.4185 15.2276 15.5813 15.8449 14.964C16.4621 14.3468 17.2993 14 18.1723 14V14ZM30.3977 15.4106C29.8989 15.4106 29.4205 15.6088 29.0678 15.9615C28.715 16.3142 28.5169 16.7926 28.5169 17.2915C28.5169 17.7903 28.715 18.2687 29.0678 18.6214C29.4205 18.9741 29.8989 19.1723 30.3977 19.1723C30.8965 19.1723 31.3749 18.9741 31.7277 18.6214C32.0804 18.2687 32.2785 17.7903 32.2785 17.2915C32.2785 16.7926 32.0804 16.3142 31.7277 15.9615C31.3749 15.6088 30.8965 15.4106 30.3977 15.4106V15.4106ZM18.1723 15.4106C17.6735 15.4106 17.1951 15.6088 16.8423 15.9615C16.4896 16.3142 16.2915 16.7926 16.2915 17.2915C16.2915 17.7903 16.4896 18.2687 16.8423 18.6214C17.1951 18.9741 17.6735 19.1723 18.1723 19.1723C18.6711 19.1723 19.1495 18.9741 19.5022 18.6214C19.855 18.2687 20.0531 17.7903 20.0531 17.2915C20.0531 16.7926 19.855 16.3142 19.5022 15.9615C19.1495 15.6088 18.6711 15.4106 18.1723 15.4106V15.4106Z" fill="white"/>
</svg>
