<svg width="48" height="48" viewBox="0 0 48 48" fill="none" xmlns="http://www.w3.org/2000/svg">
<path d="M19.5 34.5C20.3284 34.5 21 33.8284 21 33C21 32.1716 20.3284 31.5 19.5 31.5C18.6716 31.5 18 32.1716 18 33C18 33.8284 18.6716 34.5 19.5 34.5Z" fill="white"/>
<path d="M30 34.5C30.8284 34.5 31.5 33.8284 31.5 33C31.5 32.1716 30.8284 31.5 30 31.5C29.1716 31.5 28.5 32.1716 28.5 33C28.5 33.8284 29.1716 34.5 30 34.5Z" fill="white"/>
<path d="M15.735 14.103C15.701 13.933 15.6092 13.7801 15.4752 13.6702C15.3413 13.5602 15.1733 13.5001 15 13.5H12V15H14.385L17.265 29.397C17.299 29.567 17.3908 29.7199 17.5248 29.8298C17.6587 29.9398 17.8267 29.9999 18 30H31.5V28.5H18.615L18.015 25.5H31.5C31.6706 25.5 31.8361 25.4418 31.9692 25.335C32.1023 25.2282 32.195 25.0793 32.232 24.9127L33.933 17.25H32.3977L30.8985 24H17.715L15.735 14.103Z" fill="white"/>
<path d="M28.1895 16.9395L25.5 19.629V13.5H24V19.629L21.3105 16.9395L20.25 18L24.75 22.5L29.25 18L28.1895 16.9395Z" fill="white"/>
</svg>
