<svg width="48" height="48" viewBox="0 0 48 48" fill="none" xmlns="http://www.w3.org/2000/svg">
<path fill-rule="evenodd" clip-rule="evenodd" d="M19.7149 31.185C19.7149 30.9591 19.7902 30.7424 19.9241 30.5827C20.0581 30.4229 20.2398 30.3332 20.4292 30.3332H33.2857C33.4752 30.3332 33.6569 30.4229 33.7908 30.5827C33.9247 30.7424 34 30.9591 34 31.185C34 31.4109 33.9247 31.6275 33.7908 31.7872C33.6569 31.947 33.4752 32.0367 33.2857 32.0367H20.4292C20.2398 32.0367 20.0581 31.947 19.9241 31.7872C19.7902 31.6275 19.7149 31.4109 19.7149 31.185ZM19.7149 24.3709C19.7149 24.145 19.7902 23.9283 19.9241 23.7686C20.0581 23.6089 20.2398 23.5191 20.4292 23.5191H33.2857C33.4752 23.5191 33.6569 23.6089 33.7908 23.7686C33.9247 23.9283 34 24.145 34 24.3709C34 24.5968 33.9247 24.8134 33.7908 24.9732C33.6569 25.1329 33.4752 25.2226 33.2857 25.2226H20.4292C20.2398 25.2226 20.0581 25.1329 19.9241 24.9732C19.7902 24.8134 19.7149 24.5968 19.7149 24.3709ZM19.7149 17.5568C19.7149 17.3309 19.7902 17.1143 19.9241 16.9545C20.0581 16.7948 20.2398 16.705 20.4292 16.705H33.2857C33.4752 16.705 33.6569 16.7948 33.7908 16.9545C33.9247 17.1143 34 17.3309 34 17.5568C34 17.7827 33.9247 17.9994 33.7908 18.1591C33.6569 18.3188 33.4752 18.4086 33.2857 18.4086H20.4292C20.2398 18.4086 20.0581 18.3188 19.9241 18.1591C19.7902 17.9994 19.7149 17.7827 19.7149 17.5568ZM18.0779 15.2502C18.1444 15.3294 18.1972 15.4234 18.2332 15.5268C18.2692 15.6303 18.2877 15.7412 18.2877 15.8533C18.2877 15.9653 18.2692 16.0763 18.2332 16.1797C18.1972 16.2832 18.1444 16.3772 18.0779 16.4563L15.9351 19.0116C15.8688 19.0909 15.7899 19.1539 15.7032 19.1968C15.6164 19.2397 15.5234 19.2618 15.4294 19.2618C15.3355 19.2618 15.2424 19.2397 15.1557 19.1968C15.0689 19.1539 14.9901 19.0909 14.9237 19.0116L14.2095 18.1598C14.1431 18.0807 14.0904 17.9866 14.0544 17.8832C14.0185 17.7797 14 17.6688 14 17.5568C14 17.4448 14.0185 17.3339 14.0544 17.2304C14.0904 17.127 14.1431 17.0329 14.2095 16.9538C14.2759 16.8746 14.3547 16.8117 14.4415 16.7689C14.5282 16.726 14.6212 16.704 14.7152 16.704C14.8091 16.704 14.9021 16.726 14.9888 16.7689C15.0756 16.8117 15.1544 16.8746 15.2208 16.9538L15.4294 17.2042L17.0665 15.2502C17.1328 15.1709 17.2116 15.108 17.2984 15.065C17.3852 15.0221 17.4782 15 17.5722 15C17.6661 15 17.7591 15.0221 17.8459 15.065C17.9327 15.108 18.0115 15.1709 18.0779 15.2502V15.2502ZM18.0779 22.0643C18.1444 22.1434 18.1972 22.2374 18.2332 22.3409C18.2692 22.4444 18.2877 22.5553 18.2877 22.6674C18.2877 22.7794 18.2692 22.8903 18.2332 22.9938C18.1972 23.0973 18.1444 23.1913 18.0779 23.2704L15.9351 25.8257C15.8688 25.905 15.7899 25.9679 15.7032 26.0109C15.6164 26.0538 15.5234 26.0759 15.4294 26.0759C15.3355 26.0759 15.2424 26.0538 15.1557 26.0109C15.0689 25.9679 14.9901 25.905 14.9237 25.8257L14.2095 24.9739C14.0753 24.814 14 24.5971 14 24.3709C14 24.1447 14.0753 23.9278 14.2095 23.7678C14.3436 23.6079 14.5255 23.518 14.7152 23.518C14.9048 23.518 15.0867 23.6079 15.2208 23.7678L15.4294 24.0183L17.0665 22.0643C17.1328 21.985 17.2116 21.9221 17.2984 21.8791C17.3852 21.8362 17.4782 21.8141 17.5722 21.8141C17.6661 21.8141 17.7591 21.8362 17.8459 21.8791C17.9327 21.9221 18.0115 21.985 18.0779 22.0643V22.0643ZM18.0779 28.8784C18.1444 28.9575 18.1972 29.0515 18.2332 29.155C18.2692 29.2585 18.2877 29.3694 18.2877 29.4814C18.2877 29.5935 18.2692 29.7044 18.2332 29.8079C18.1972 29.9114 18.1444 30.0054 18.0779 30.0845L15.9351 32.6398C15.8688 32.7191 15.7899 32.782 15.7032 32.825C15.6164 32.8679 15.5234 32.89 15.4294 32.89C15.3355 32.89 15.2424 32.8679 15.1557 32.825C15.0689 32.782 14.9901 32.7191 14.9237 32.6398L14.2095 31.788C14.0753 31.6281 14 31.4111 14 31.185C14 30.9588 14.0753 30.7418 14.2095 30.5819C14.3436 30.422 14.5255 30.3321 14.7152 30.3321C14.9048 30.3321 15.0867 30.422 15.2208 30.5819L15.4294 30.8323L17.0665 28.8784C17.1328 28.7991 17.2116 28.7361 17.2984 28.6932C17.3852 28.6503 17.4782 28.6282 17.5722 28.6282C17.6661 28.6282 17.7591 28.6503 17.8459 28.6932C17.9327 28.7361 18.0115 28.7991 18.0779 28.8784V28.8784Z" fill="white"/>
</svg>
