<svg width="48" height="48" viewBox="0 0 48 48" fill="none" xmlns="http://www.w3.org/2000/svg">
<path d="M28.6846 20.194C28.2692 19.7576 27.623 19.7576 27.2076 20.194C26.7922 20.6303 26.7922 21.3091 27.2076 21.7455L28.3153 22.9091H22.523V25.0909H28.3384L27.2307 26.2546C26.8153 26.6909 26.8153 27.3697 27.2307 27.8061C27.6461 28.2425 28.2922 28.2425 28.7076 27.8061L32.3076 24L28.6846 20.194Z" fill="white"/>
<path d="M24 27.2727V30.5454H17.7692V17.4545H24V20.7273H24.2539L26.0769 18.8121V16.3636C26.0769 15.7576 25.6154 15.2727 25.0385 15.2727H16.7308C16.1539 15.2727 15.6923 15.7576 15.6923 16.3636V31.6363C15.6923 32.2424 16.1539 32.7273 16.7308 32.7273H25.0385C25.6154 32.7273 26.0769 32.2424 26.0769 31.6363V29.1879L24.2539 27.2727H24Z" fill="white"/>
</svg>
