<svg width="48" height="48" viewBox="0 0 48 48" fill="none" xmlns="http://www.w3.org/2000/svg">
<path d="M28.3125 23.25H24.75V19.6875C24.75 19.5844 24.6656 19.5 24.5625 19.5H23.4375C23.3344 19.5 23.25 19.5844 23.25 19.6875V23.25H19.6875C19.5844 23.25 19.5 23.3344 19.5 23.4375V24.5625C19.5 24.6656 19.5844 24.75 19.6875 24.75H23.25V28.3125C23.25 28.4156 23.3344 28.5 23.4375 28.5H24.5625C24.6656 28.5 24.75 28.4156 24.75 28.3125V24.75H28.3125C28.4156 24.75 28.5 24.6656 28.5 24.5625V23.4375C28.5 23.3344 28.4156 23.25 28.3125 23.25Z" fill="white"/>
<path d="M24 13.5C18.2016 13.5 13.5 18.2016 13.5 24C13.5 29.7984 18.2016 34.5 24 34.5C29.7984 34.5 34.5 29.7984 34.5 24C34.5 18.2016 29.7984 13.5 24 13.5ZM24 32.7188C19.1859 32.7188 15.2812 28.8141 15.2812 24C15.2812 19.1859 19.1859 15.2812 24 15.2812C28.8141 15.2812 32.7188 19.1859 32.7188 24C32.7188 28.8141 28.8141 32.7188 24 32.7188Z" fill="white"/>
<path d="M27.5273 25.2656H27.4805V25.1016H27.5273V25.2656ZM27.6211 25.2656H27.5742V25.0312H27.6211V25.2656ZM27.7148 25.2656H27.668V25.1719H27.7148V25.2656ZM27.7734 25.3148H27.4219V24.9844H27.7734V25.3148ZM27.7734 24.9375H27.4219C27.3961 24.9375 27.375 24.9586 27.375 24.9844V25.3125C27.375 25.3383 27.3961 25.3594 27.4219 25.3594H27.7734C27.7992 25.3594 27.8203 25.3383 27.8203 25.3125V24.9844C27.8203 24.9586 27.7992 24.9375 27.7734 24.9375Z" fill="white"/>
</svg>
