<svg width="48" height="48" viewBox="0 0 48 48" fill="none" xmlns="http://www.w3.org/2000/svg">
<path d="M27.45 24.6829C28.4623 23.9534 29.2171 22.9219 29.6061 21.7366C29.995 20.5513 29.998 19.2732 29.6146 18.0861C29.2313 16.8989 28.4813 15.8639 27.4724 15.1297C26.4636 14.3955 25.2479 14 24 14C22.7522 14 21.5364 14.3955 20.5276 15.1297C19.5188 15.8639 18.7687 16.8989 18.3854 18.0861C18.002 19.2732 18.005 20.5513 18.3939 21.7366C18.7829 22.9219 19.5377 23.9534 20.55 24.6829C18.9058 25.3651 17.5008 26.5195 16.5129 28C15.525 29.4805 14.9985 31.2206 15 33.0003C15 33.2654 15.1054 33.5197 15.2929 33.7072C15.4804 33.8947 15.7348 34 16 34C16.2652 34 16.5196 33.8947 16.7071 33.7072C16.8946 33.5197 17 33.2654 17 33.0003C17 31.1444 17.7375 29.3644 19.0503 28.0521C20.363 26.7397 22.1435 26.0025 24 26.0025C25.8565 26.0025 27.637 26.7397 28.9497 28.0521C30.2625 29.3644 31 31.1444 31 33.0003C31 33.2654 31.1054 33.5197 31.2929 33.7072C31.4804 33.8947 31.7348 34 32 34C32.2652 34 32.5196 33.8947 32.7071 33.7072C32.8946 33.5197 33 33.2654 33 33.0003C33.0015 31.2206 32.475 29.4805 31.4871 28C30.4992 26.5195 29.0942 25.3651 27.45 24.6829ZM24 16.0056C24.7713 16.0056 25.5254 16.2342 26.1667 16.6626C26.8081 17.091 27.308 17.6999 27.6031 18.4123C27.8983 19.1248 27.9755 19.9087 27.8251 20.665C27.6746 21.4213 27.3031 22.116 26.7577 22.6612C26.2123 23.2065 25.5174 23.5778 24.7609 23.7282C24.0043 23.8787 23.2202 23.8015 22.5075 23.5064C21.7949 23.2113 21.1858 22.7116 20.7573 22.0704C20.3287 21.4293 20.1 20.6755 20.1 19.9044C20.1026 18.8711 20.5144 17.881 21.2452 17.1504C21.976 16.4198 22.9665 16.0082 24 16.0056Z" fill="white"/>
</svg>
