<svg width="48" height="48" viewBox="0 0 48 48" fill="none" xmlns="http://www.w3.org/2000/svg">
<path d="M24 26C24.1978 26 24.3911 25.9414 24.5556 25.8315C24.72 25.7216 24.8482 25.5654 24.9239 25.3827C24.9996 25.2 25.0194 24.9989 24.9808 24.8049C24.9422 24.6109 24.847 24.4327 24.7071 24.2929C24.5673 24.153 24.3891 24.0578 24.1951 24.0192C24.0011 23.9806 23.8 24.0004 23.6173 24.0761C23.4346 24.1518 23.2784 24.28 23.1685 24.4444C23.0586 24.6089 23 24.8022 23 25C23 25.2652 23.1054 25.5196 23.2929 25.7071C23.4804 25.8946 23.7348 26 24 26ZM29 26C29.1978 26 29.3911 25.9414 29.5556 25.8315C29.72 25.7216 29.8482 25.5654 29.9239 25.3827C29.9996 25.2 30.0194 24.9989 29.9808 24.8049C29.9422 24.6109 29.847 24.4327 29.7071 24.2929C29.5673 24.153 29.3891 24.0578 29.1951 24.0192C29.0011 23.9806 28.8 24.0004 28.6173 24.0761C28.4346 24.1518 28.2784 24.28 28.1685 24.4444C28.0586 24.6089 28 24.8022 28 25C28 25.2652 28.1054 25.5196 28.2929 25.7071C28.4804 25.8946 28.7348 26 29 26ZM24 30C24.1978 30 24.3911 29.9414 24.5556 29.8315C24.72 29.7216 24.8482 29.5654 24.9239 29.3827C24.9996 29.2 25.0194 28.9989 24.9808 28.8049C24.9422 28.6109 24.847 28.4327 24.7071 28.2929C24.5673 28.153 24.3891 28.0578 24.1951 28.0192C24.0011 27.9806 23.8 28.0004 23.6173 28.0761C23.4346 28.1518 23.2784 28.28 23.1685 28.4444C23.0586 28.6089 23 28.8022 23 29C23 29.2652 23.1054 29.5196 23.2929 29.7071C23.4804 29.8946 23.7348 30 24 30ZM29 30C29.1978 30 29.3911 29.9414 29.5556 29.8315C29.72 29.7216 29.8482 29.5654 29.9239 29.3827C29.9996 29.2 30.0194 28.9989 29.9808 28.8049C29.9422 28.6109 29.847 28.4327 29.7071 28.2929C29.5673 28.153 29.3891 28.0578 29.1951 28.0192C29.0011 27.9806 28.8 28.0004 28.6173 28.0761C28.4346 28.1518 28.2784 28.28 28.1685 28.4444C28.0586 28.6089 28 28.8022 28 29C28 29.2652 28.1054 29.5196 28.2929 29.7071C28.4804 29.8946 28.7348 30 29 30ZM19 26C19.1978 26 19.3911 25.9414 19.5556 25.8315C19.72 25.7216 19.8482 25.5654 19.9239 25.3827C19.9996 25.2 20.0194 24.9989 19.9808 24.8049C19.9422 24.6109 19.847 24.4327 19.7071 24.2929C19.5673 24.153 19.3891 24.0578 19.1951 24.0192C19.0011 23.9806 18.8 24.0004 18.6173 24.0761C18.4346 24.1518 18.2784 24.28 18.1685 24.4444C18.0586 24.6089 18 24.8022 18 25C18 25.2652 18.1054 25.5196 18.2929 25.7071C18.4804 25.8946 18.7348 26 19 26ZM31 16H30V15C30 14.7348 29.8946 14.4804 29.7071 14.2929C29.5196 14.1054 29.2652 14 29 14C28.7348 14 28.4804 14.1054 28.2929 14.2929C28.1054 14.4804 28 14.7348 28 15V16H20V15C20 14.7348 19.8946 14.4804 19.7071 14.2929C19.5196 14.1054 19.2652 14 19 14C18.7348 14 18.4804 14.1054 18.2929 14.2929C18.1054 14.4804 18 14.7348 18 15V16H17C16.2044 16 15.4413 16.3161 14.8787 16.8787C14.3161 17.4413 14 18.2044 14 19V31C14 31.7956 14.3161 32.5587 14.8787 33.1213C15.4413 33.6839 16.2044 34 17 34H31C31.7956 34 32.5587 33.6839 33.1213 33.1213C33.6839 32.5587 34 31.7956 34 31V19C34 18.2044 33.6839 17.4413 33.1213 16.8787C32.5587 16.3161 31.7956 16 31 16ZM32 31C32 31.2652 31.8946 31.5196 31.7071 31.7071C31.5196 31.8946 31.2652 32 31 32H17C16.7348 32 16.4804 31.8946 16.2929 31.7071C16.1054 31.5196 16 31.2652 16 31V22H32V31ZM32 20H16V19C16 18.7348 16.1054 18.4804 16.2929 18.2929C16.4804 18.1054 16.7348 18 17 18H31C31.2652 18 31.5196 18.1054 31.7071 18.2929C31.8946 18.4804 32 18.7348 32 19V20ZM19 30C19.1978 30 19.3911 29.9414 19.5556 29.8315C19.72 29.7216 19.8482 29.5654 19.9239 29.3827C19.9996 29.2 20.0194 28.9989 19.9808 28.8049C19.9422 28.6109 19.847 28.4327 19.7071 28.2929C19.5673 28.153 19.3891 28.0578 19.1951 28.0192C19.0011 27.9806 18.8 28.0004 18.6173 28.0761C18.4346 28.1518 18.2784 28.28 18.1685 28.4444C18.0586 28.6089 18 28.8022 18 29C18 29.2652 18.1054 29.5196 18.2929 29.7071C18.4804 29.8946 18.7348 30 19 30Z" fill="white"/>
</svg>
