<svg width="22" height="23" viewBox="0 0 22 23" fill="none" xmlns="http://www.w3.org/2000/svg">
<path d="M19.8419 19.0442L15.6938 14.8961C16.9239 13.3351 17.5113 11.3631 17.3356 9.38346C17.16 7.40377 16.2346 5.56598 14.7489 4.24594C13.2631 2.9259 11.3292 2.22334 9.34261 2.28196C7.35601 2.34057 5.46686 3.15593 4.06152 4.56127C2.65617 5.96662 1.84082 7.85577 1.7822 9.84236C1.72359 11.829 2.42614 13.7629 3.74618 15.2486C5.06623 16.7344 6.90402 17.6597 8.8837 17.8354C10.8634 18.011 12.8354 17.4237 14.3964 16.1935L18.5445 20.3416C18.6294 20.4273 18.7304 20.4952 18.8418 20.5416C18.9531 20.588 19.0726 20.6119 19.1932 20.6119C19.3138 20.6119 19.4332 20.588 19.5445 20.5416C19.6559 20.4952 19.7569 20.4273 19.8419 20.3416C19.9275 20.2567 19.9955 20.1556 20.0419 20.0443C20.0883 19.933 20.1121 19.8135 20.1121 19.6929C20.1121 19.5723 20.0883 19.4529 20.0419 19.3415C19.9955 19.2302 19.9275 19.1292 19.8419 19.0442ZM3.6607 10.0993C3.6607 8.92474 4.00901 7.77651 4.66158 6.79987C5.31415 5.82322 6.24168 5.06202 7.32687 4.61252C8.41206 4.16302 9.60617 4.04541 10.7582 4.27457C11.9102 4.50372 12.9684 5.06934 13.799 5.89991C14.6296 6.73048 15.1952 7.78869 15.4244 8.94072C15.6535 10.0927 15.5359 11.2869 15.0864 12.3721C14.6369 13.4572 13.8757 14.3848 12.8991 15.0373C11.9224 15.6899 10.7742 16.0382 9.59958 16.0382C8.02523 16.0358 6.51606 15.4093 5.40282 14.2961C4.28959 13.1829 3.66311 11.6737 3.6607 10.0993Z" fill="#404040"/>
</svg>
